<svg version="1.2" xmlns="http://www.w3.org/2000/svg" viewBox="0 0 250 250" width="250" height="250">
	<title>Novo Projeto</title>
	<style>
		.s0 { fill: #e0b0ff } 
	</style>
	<path class="s0" d="m125 21c-17.5 0-34.7 4.6-49.9 13.3-15.2 8.8-27.8 21.3-36.6 36.5-8.8 15.1-13.4 32.3-13.5 49.8-0.1 17.5 4.4 34.7 13.1 49.9l-9 31.6c-0.6 2-0.6 4.2-0.1 6.3 0.6 2 1.7 3.9 3.2 5.4 1.5 1.6 3.4 2.6 5.4 3.2 2.1 0.5 4.3 0.5 6.3-0.1l31.6-9c26.9 15.4 59.5 17.3 88.1 5.3 28.7-12 50.1-36.6 58.1-66.6 7.9-30 1.5-62-17.4-86.6-19-24.6-48.3-39-79.3-39zm0 192q-6.2 0-12.3-0.8-6.1-0.8-12-2.5-6-1.6-11.7-4-5.6-2.4-11-5.6-0.3-0.2-0.7-0.3-0.4-0.1-0.8-0.2-0.4 0-0.8 0-0.4 0-0.8 0.1l-33.2 9.5c-0.6 0.2-1.4 0.2-2.1 0-0.6-0.2-1.3-0.5-1.8-1-0.5-0.5-0.8-1.2-1-1.8-0.2-0.7-0.2-1.5 0-2.1l9.5-33.2q0.1-0.4 0.1-0.8 0-0.4 0-0.8-0.1-0.4-0.2-0.8-0.1-0.4-0.3-0.7c-21.3-35.9-15.8-81.7 13.4-111.5 29.3-29.8 74.9-36.1 111.2-15.5 36.3 20.7 54.1 63.2 43.4 103.5-10.6 40.4-47.2 68.5-88.9 68.5zm50.5-73.5l-20.4-11.6q-1.4-0.8-3-1.2-1.5-0.4-3.1-0.4-1.6 0-3.2 0.4-1.5 0.5-2.9 1.3l-13.8 8.3q-3.1-1.6-5.9-3.7-2.9-2-5.3-4.5-2.5-2.4-4.5-5.3-2.1-2.8-3.7-5.9l8.3-13.8q0.8-1.4 1.3-2.9 0.4-1.6 0.4-3.2 0-1.6-0.4-3.1-0.4-1.6-1.2-3l-11.6-20.4q-0.8-1.3-1.8-2.3-1-1-2.2-1.7-1.3-0.7-2.7-1.1-1.4-0.4-2.8-0.4c-4.2 0-8.3 0.8-12.2 2.4-3.9 1.6-7.4 4-10.4 6.9-3 3-5.3 6.5-6.9 10.4-1.6 3.8-2.5 8-2.5 12.2 0 11 2.1 22 6.4 32.2 4.2 10.2 10.4 19.4 18.2 27.3 7.8 7.8 17 14 27.2 18.2 10.2 4.2 21.2 6.4 32.2 6.4h0.1c4.2 0 8.4-0.9 12.2-2.5 3.9-1.6 7.4-3.9 10.4-6.9 2.9-3 5.3-6.5 6.9-10.4 1.6-3.9 2.4-8 2.4-12.2q0-1.4-0.4-2.8-0.4-1.4-1.1-2.7-0.7-1.2-1.7-2.2-1-1-2.3-1.8zm-26.4 33.5h-0.1c-10 0-19.9-2-29.1-5.8-9.2-3.8-17.6-9.4-24.7-16.5-7-7.1-12.6-15.5-16.4-24.7-3.9-9.2-5.8-19.1-5.8-29.1 0-3.2 0.6-6.3 1.9-9.2 1.2-2.9 2.9-5.5 5.2-7.7 2.2-2.2 4.8-4 7.7-5.2 2.9-1.2 6.1-1.8 9.2-1.8q0.4 0 0.8 0.1 0.3 0.1 0.7 0.3 0.3 0.2 0.6 0.5 0.2 0.2 0.4 0.6l11.7 20.4q0.3 0.5 0.4 1 0.1 0.5 0.1 1 0 0.6-0.1 1.1-0.2 0.5-0.4 1l-9.4 15.6q-0.3 0.4-0.4 0.9-0.2 0.4-0.2 0.9 0 0.5 0.1 1 0.1 0.5 0.3 0.9 1.9 4.3 4.6 8.2 2.7 3.9 6 7.3 3.4 3.3 7.3 6 3.9 2.7 8.2 4.6 0.4 0.2 0.9 0.3 0.5 0.1 1 0.1 0.5 0 0.9-0.2 0.5-0.1 0.9-0.4l15.6-9.4q0.5-0.2 1-0.4 0.5-0.1 1.1-0.1 0.5 0 1 0.1 0.5 0.1 1 0.4l20.4 11.7q0.4 0.2 0.6 0.4 0.3 0.3 0.5 0.6 0.2 0.4 0.3 0.7 0.1 0.4 0.1 0.8c0 3.1-0.6 6.3-1.8 9.2-1.2 2.9-3 5.5-5.2 7.7-2.2 2.3-4.8 4-7.7 5.2-2.9 1.3-6 1.9-9.2 1.9z"/>
</svg>